<svg width="320" height="320" viewBox="0 0 320 320" fill="none" xmlns="http://www.w3.org/2000/svg">
<path d="M109.907 157.937C117.747 160.55 122.197 165.071 122.762 172.911C123.398 181.599 119.654 188.098 112.662 192.901C108.635 195.726 104.044 197.421 99.2411 198.269C90.1293 199.964 80.9468 200.035 71.835 198.551C62.6526 197.068 58.6264 191.488 60.6042 182.306C64.701 163.376 69.0803 144.446 73.389 125.586C73.7421 124.103 74.1659 122.973 76.0731 122.832C86.3857 121.913 96.6276 120.359 107.011 122.125C110.825 122.761 114.498 123.679 117.889 125.374C129.614 131.166 130.815 145.152 120.431 152.992C117.465 155.182 114.145 156.595 109.907 157.937ZM82.9246 165.141C81.5825 171.287 80.3111 176.937 79.0397 182.517C78.5453 184.636 78.8278 186.332 81.3706 186.473C87.3039 186.755 93.2372 186.473 98.5347 183.365C102.561 181.034 104.256 177.361 103.691 172.699C103.126 168.249 99.9474 166.483 96.0625 165.283C91.7539 164.011 87.5864 166.13 82.9246 165.141ZM95.9919 134.274C94.1554 135.475 90.6943 132.579 89.5642 136.393C88.3634 140.631 87.5158 145.011 86.5269 149.39C86.1738 150.873 86.6682 152.215 88.2928 152.286C94.6499 152.639 101.007 152.71 106.163 148.189C111.178 143.81 109.624 137.029 103.267 134.981C101.007 134.345 98.676 134.345 95.9919 134.274Z" fill="#004192"/>
<path d="M263.254 135.334C259.651 125.445 250.54 123.114 241.216 122.196C232.598 121.348 223.91 121.772 215.293 122.761C212.326 123.114 210.843 124.244 210.137 127.352C205.051 150.52 199.754 173.688 194.597 196.856C194.385 197.704 193.962 198.622 195.092 199.682C197.14 199.682 199.542 199.682 201.873 199.682C210.49 199.682 213.033 197.633 214.94 189.298C216.07 184.354 217.2 179.339 218.26 174.536C220.026 173.9 221.438 174.394 222.851 174.465C235.283 174.889 247.078 172.841 256.19 163.517C263.96 155.606 267.209 146 263.254 135.334ZM247.714 147.695C246.019 155.747 239.097 160.762 229.561 160.833C223.345 160.833 222.78 160.126 224.122 153.84C225.253 148.684 226.453 143.598 227.372 138.442C227.795 135.899 229.067 134.91 231.539 134.91C234.152 134.839 236.766 134.698 239.379 135.192C246.16 136.464 249.127 140.914 247.714 147.695Z" fill="#004192"/>
<path d="M193.538 123.538C177.221 117.605 161.54 118.664 148.049 130.319C135.123 141.479 131.026 156.312 132.651 172.982C133.569 182.517 137.595 190.499 146.142 195.373C157.02 201.589 168.675 201.801 180.4 198.339C183.013 197.563 184.991 195.726 185.697 192.971C186.757 188.804 187.675 184.636 188.735 179.904C185.062 181.882 182.095 183.718 178.705 184.778C168.039 188.098 157.373 184.001 153.629 175.101C148.473 162.81 155.819 143.457 168.039 137.806C178.069 133.215 187.746 135.263 197.423 140.631C197.988 138.512 198.553 136.605 199.047 134.698C200.46 128.835 199.259 125.657 193.538 123.538Z" fill="#004192"/>
<path d="M29.6664 129.33C39.2726 134.204 46.9718 141.196 52.6225 150.238C56.0836 155.818 55.6598 161.963 51.7749 167.331C43.7932 178.491 33.1981 186.685 20.9077 192.336C12.6435 196.15 3.53171 191.7 0 182.729C4.9444 180.116 9.88879 177.432 14.4094 174.112C21.1903 169.168 27.0529 163.446 29.9489 155.323C33.9044 146.635 34.2576 137.947 29.6664 129.33Z" fill="#F96A53"/>
<path d="M294.545 129.33C304.151 134.133 311.85 141.267 317.571 150.238C321.033 155.676 320.75 161.68 317.006 166.978C308.954 178.421 298.147 186.755 285.574 192.477C277.381 196.15 268.481 191.629 265.02 182.871C269.681 180.328 274.414 177.785 278.723 174.606C285.715 169.521 291.931 163.729 294.898 155.323C298.924 146.565 299.207 137.877 294.545 129.33Z" fill="#F96A53"/>
<path d="M29.6664 129.33C34.2576 137.947 33.8338 146.565 29.8783 155.253C23.8744 148.754 16.3872 144.304 8.47614 140.773C12.6436 129.542 22.1085 124.597 29.6664 129.33Z" fill="#004192"/>
<path d="M294.545 129.33C299.207 137.947 298.924 146.565 294.827 155.323C288.894 148.825 281.477 144.446 273.143 140.702C275.897 134.486 279.853 129.966 286.069 127.635C289.247 126.363 292.002 127.281 294.545 129.33Z" fill="#004192"/>
</svg>
