<svg width="78" height="21" viewBox="0 0 78 21" fill="none" xmlns="http://www.w3.org/2000/svg">
<g clip-path="url(#clip0_1135_136)">
<path d="M9.64269 15.6675L7.44663 14.1275L10.7008 11.8275L16.8098 16.2875L20.9823 13.2475L19.3852 8.34749L15.4323 11.2275L15.8316 12.4875L13.7154 14.0275L12.4976 10.2675L15.572 8.04749H11.679L9.36319 0.887489H4.0128L2.49552 5.54749H7.44663L7.86588 4.30749H10.4812L9.24341 8.04749H1.69695L0 13.2475L4.13258 16.2675L4.93115 13.8475L5.74968 11.3075L4.69158 10.5275L5.49015 8.04749L7.20706 9.28749L8.66445 10.3475L8.10545 12.0675L7.04735 15.3875L6.24878 17.8075L10.5012 20.8875L14.6936 17.8275L10.6808 14.9075L9.64269 15.6675Z" fill="#D42C34"/>
<path d="M14.7934 5.54749L15.6119 8.02749L18.5866 5.84749L16.9695 0.887489H11.9984L13.5157 5.54749H14.7934ZM15.6119 8.02749L15.572 8.04749H15.6119V8.02749ZM58.7545 0.927489H63.2864L66.6803 16.6875H63.6657L62.947 13.1475H59.014L58.3153 16.6875H55.3606L58.7545 0.927489ZM62.5876 10.9475L61.0504 3.32749H60.9306L59.3135 10.9475H62.5876Z" fill="#D42C34"/>
<path d="M72.0307 10.4075C72.0307 10.4075 71.1522 12.6475 70.5932 13.9875L69.4553 16.6875H66.3209L70.2339 8.42749L66.5405 0.92749H69.7547L70.733 3.10749C71.292 4.42749 72.1305 6.56749 72.1305 6.56749H72.2702C72.2702 6.56749 73.1087 4.54749 73.7675 3.04749L74.7059 0.94749H77.8003L74.1069 8.46749L77.9999 16.6875H74.7857L73.5479 13.9275C72.9889 12.6475 72.1504 10.4075 72.1504 10.4075H72.0307ZM54.2027 0.92749H50.3895C47.894 9.72749 47.6943 11.0875 47.6943 11.0875H47.5746C47.5746 11.0875 47.4148 9.80749 44.8395 0.92749H40.7468V16.6875H43.5218V4.60749L46.0772 13.3875H49.1517L51.7071 4.48749V16.6875H54.4622V0.92749H54.2027ZM29.1876 13.9475H31.3437V16.7475H26.173V0.96749H29.1676V13.9475H29.1876ZM33.8791 3.76749H31.703V0.96749H36.8738V16.7275H33.8791V3.76749Z" fill="#D42C34"/>
</g>
<defs>
<clipPath id="clip0_1135_136">
<rect width="78" height="20" fill="white" transform="translate(0 0.887489)"/>
</clipPath>
</defs>
</svg>
